<?xml version="1.0" encoding="UTF-8" standalone="no"?>
<!-- Created with Inkscape (http://www.inkscape.org/) -->

<svg
   xmlns:dc="http://purl.org/dc/elements/1.1/"
   xmlns:cc="http://creativecommons.org/ns#"
   xmlns:rdf="http://www.w3.org/1999/02/22-rdf-syntax-ns#"
   xmlns:svg="http://www.w3.org/2000/svg"
   xmlns="http://www.w3.org/2000/svg"
   xmlns:xlink="http://www.w3.org/1999/xlink"
   xmlns:sodipodi="http://sodipodi.sourceforge.net/DTD/sodipodi-0.dtd"
   xmlns:inkscape="http://www.inkscape.org/namespaces/inkscape"
   id="svg1"
   sodipodi:docname="elsa.svg"
   viewBox="0 0 0 138.53971"
   sodipodi:version="0.32"
   version="1.1"
   inkscape:version="0.91 r13725"
   width="138.5397"
   height="138.5397"
   inkscape:export-filename="elsa.png"
   inkscape:export-xdpi="83.153061"
   inkscape:export-ydpi="83.153061">
  <defs
     id="defs3">
    <linearGradient
       id="linearGradient854"
       y2="18.837"
       gradientUnits="userSpaceOnUse"
       y1="67.629997"
       gradientTransform="matrix(1.4061186,0,0,0.95824487,-8.3920008,-3.8569154)"
       x2="7.7171998"
       x1="84.717003">
      <stop
         id="stop913"
         style="stop-color:#b1f3f3"
         offset="0" />
      <stop
         id="stop855"
         style="stop-color:#ffffff"
         offset=".2832" />
      <stop
         id="stop1077"
         style="stop-color:#e2ffff"
         offset=".43083" />
      <stop
         id="stop1078"
         style="stop-color:#ffffff"
         offset=".69532" />
      <stop
         id="stop914"
         style="stop-color:#bdffff"
         offset="1" />
    </linearGradient>
  </defs>
  <sodipodi:namedview
     id="base"
     bordercolor="#666666"
     inkscape:pageshadow="2"
     inkscape:window-y="0"
     pagecolor="#ffffff"
     inkscape:window-height="745"
     inkscape:window-maximized="1"
     inkscape:zoom="4"
     inkscape:window-x="0"
     showgrid="false"
     borderopacity="1.0"
     inkscape:current-layer="svg1"
     inkscape:cx="63.158985"
     inkscape:cy="55.840968"
     inkscape:window-width="1280"
     inkscape:pageopacity="0.0"
     showguides="true"
     inkscape:guide-bbox="true"
     fit-margin-top="0"
     fit-margin-left="0"
     fit-margin-right="0"
     fit-margin-bottom="0" />
  <metadata
     id="metadata12">
    <rdf:RDF>
      <cc:Work>
        <dc:format>image/svg+xml</dc:format>
        <dc:type
           rdf:resource="http://purl.org/dc/dcmitype/StillImage" />
        <cc:license
           rdf:resource="http://creativecommons.org/publicdomain/zero/1.0/" />
        <dc:publisher>
          <cc:Agent
             rdf:about="http://openclipart.org/">
            <dc:title>Openclipart</dc:title>
          </cc:Agent>
        </dc:publisher>
        <dc:title></dc:title>
      </cc:Work>
      <cc:License
         rdf:about="http://creativecommons.org/publicdomain/zero/1.0/">
        <cc:permits
           rdf:resource="http://creativecommons.org/ns#Reproduction" />
        <cc:permits
           rdf:resource="http://creativecommons.org/ns#Distribution" />
        <cc:permits
           rdf:resource="http://creativecommons.org/ns#DerivativeWorks" />
      </cc:License>
    </rdf:RDF>
  </metadata>
  <metadata
     id="metadata14">
    <rdf:RDF>
      <cc:Work
         rdf:about="">
        <dc:title>Clipart by Nicu Buculei - w_cloud</dc:title>
        <dc:rights>
          <cc:Agent>
            <dc:title>Nicu Buculei</dc:title>
          </cc:Agent>
        </dc:rights>
        <dc:type
           rdf:resource="http://purl.org/dc/dcmitype/StillImage" />
        <cc:license
           rdf:resource="http://web.resource.org/cc/PublicDomain" />
      </cc:Work>
      <cc:License
         rdf:about="http://web.resource.org/cc/PublicDomain">
        <cc:permits
           rdf:resource="http://web.resource.org/cc/Reproduction" />
        <cc:permits
           rdf:resource="http://web.resource.org/cc/Distribution" />
        <cc:permits
           rdf:resource="http://web.resource.org/cc/DerivativeWorks" />
      </cc:License>
    </rdf:RDF>
  </metadata>
  <g
     transform="matrix(1.0811944,0,0,1.0811944,-71.48939,-6.4588987)"
     id="layer1"
     inkscape:label="Vrstva 1"
     style="fill:#00b7ff;fill-opacity:1;stroke:#000000;stroke-width:0.64743221;stroke-miterlimit:4;stroke-dasharray:none;stroke-opacity:1">
    <path
       inkscape:connector-curvature="0"
       id="path5794"
       transform="matrix(0.26458333,0,0,0.26458333,55.625597,50.485418)"
       d="m 268.98828,2.5195312 c -3.456,0 -8.63956,5.9510157 -20.35156,9.7910158 -4.032,1.344 -4.22461,2.112609 -4.22461,4.224609 0,1.536 0.57491,2.110906 2.87891,2.878906 7.296,2.688 9.98437,6.337082 9.98437,16.705079 l 0,84.863279 c 0,6.144 -1.72759,8.0648 -5.18359,9.2168 -4.8,1.344 -4.99219,2.11184 -4.99219,3.83984 0,3.264 0.38436,3.83967 5.56836,3.26367 10.56,-0.768 23.42445,-1.15276 32.06445,-0.38476 3.264,0.384 4.22266,3.3e-4 4.22266,-3.26367 0,-2.304 -0.19066,-2.87967 -4.22266,-3.26368 -9.024,-1.15199 -12.48047,-4.03289 -12.48047,-11.71289 l -0.38476,-83.710933 c 0,-14.783996 0.57617,-24.768438 0.57617,-27.6484376 0,-3.264 -0.38308,-4.7988282 -3.45508,-4.7988282 z M 134.88477,12.427734 c -1.53188,0.015 -1.89196,0.554141 -2.25196,1.994141 -0.768,2.304 -0.38509,3.457375 2.87891,4.609375 9.408,2.88 10.36914,3.838785 10.36914,15.550781 l 0,86.400389 c 0,8.448 -2.1128,9.21638 -9.2168,9.98438 -3.264,0.384 -4.03125,0.9589 -4.03125,2.8789 0,2.88 0.76725,3.45763 4.03125,3.26563 11.136,-0.576 27.2638,-0.96094 43.00782,-0.96094 13.632,0 27.26404,0.19158 37.24804,0.76758 4.608,0.192 5.75977,-0.19116 5.75977,-1.53516 0.576,-6.72 1.92103,-16.12884 3.45703,-22.46484 0.384,-1.728 0.19131,-2.87908 -2.30469,-3.45508 -2.304,-0.96 -3.83942,0.38409 -4.60742,2.49609 -3.84,10.752 -11.52155,16.32032 -29.18555,16.32032 -22.272,0 -27.64648,-1.15272 -27.64648,-11.13672 l 0,-40.896486 c 0,-0.96 0.38256,-1.34375 1.72656,-1.34375 4.80001,0 19.39242,0.384937 23.23242,0.960937 5.376,0.576 6.52905,2.68711 7.87305,12.28711 0.192,2.112 1.34367,3.264265 3.26367,3.072265 2.496,-0.384 3.07227,-1.1515 3.07227,-2.6875 -0.384,-6.912 0.19056,-25.920797 1.72656,-33.216797 0.384,-1.92 -0.5755,-2.494906 -2.6875,-2.878906 -2.496,-0.768 -3.84002,0.190906 -4.41602,2.878906 -1.344,7.296 -2.30393,9.984547 -6.33593,10.560547 -7.488,0.768 -17.27957,0.960344 -24.76758,1.152344 -2.496,0 -2.6875,-0.192687 -2.6875,-2.304688 l 0,-39.167968 c 0,-2.496 -0.19199,-3.839844 4.41601,-3.839844 8.06402,0 26.49569,-4.22e-4 31.67969,0.767578 8.256,1.536 10.36805,6.143457 13.24805,13.439453 0.96,2.112 2.30444,2.496094 3.64844,2.496094 1.92,0 2.6875,-0.766906 2.6875,-2.878906 -0.192,-7.103996 0.57651,-15.745094 1.72851,-21.121094 0.768,-2.496 -1.34512,-1.918563 -5.95312,-1.726563 -10.56,0.768001 -27.84058,1.150391 -43.39258,1.150391 -14.40001,0 -27.07092,-0.190984 -31.29492,-0.958984 -2.016,-0.288 -3.35627,-0.467985 -4.27539,-0.458985 z m 197.68554,49.035157 c -15.552,0 -27.07226,7.29514 -27.07226,21.11914 0,11.328 5.37642,15.936594 23.23242,23.808589 13.056,5.76 15.74414,8.83163 15.74414,14.01563 0,5.184 -3.84005,9.2168 -13.24805,9.2168 -12.096,0 -18.04825,-4.22507 -22.65625,-12.28907 -1.344,-2.304 -1.91984,-2.68809 -3.83984,-2.49609 -1.728,0.192 -2.30469,0.38555 -2.30469,5.18555 0,3.456 0.19158,11.90328 0.76758,12.86328 1.344,1.536 13.44009,4.99219 26.49609,4.99219 17.664,0 28.41602,-8.44732 28.41602,-21.69532 0,-12.864 -7.48672,-17.473184 -21.88672,-23.617184 -14.592,-6.336 -18.04883,-8.255797 -18.04883,-14.591797 0,-4.608 3.83928,-8.255859 12.86328,-8.255859 8.448,0 13.63241,3.647703 18.81641,12.095703 0.768,1.152 1.7292,1.536938 4.0332,0.960938 2.688,-0.576 2.8795,-1.151922 2.6875,-1.919922 -1.728,-4.8 -2.30426,-11.327969 -3.07226,-15.167969 -0.384,-2.496 -11.32774,-4.224609 -20.92774,-4.224609 z m 84.38086,0.382812 c -15.552,0 -34.56055,11.137078 -34.56055,16.705078 0,4.416 3.45569,6.911344 7.67969,6.527344 6.336,-0.576 8.83314,-4.799688 10.36914,-7.679687 1.536,-3.264001 3.83969,-7.294922 7.67969,-7.294922 10.56,0 14.01681,5.567375 13.63281,15.359375 l -0.19336,5.951171 c -0.192,3.264001 -1.91934,4.225547 -6.52734,5.185547 -22.848,4.224001 -37.05664,11.902471 -37.05664,23.230471 0,11.904 8.83164,18.04883 18.43164,18.04883 13.824,0 20.92834,-7.67969 25.15234,-7.67969 3.072,0 3.84114,7.10351 10.36914,7.10351 5.952,0 18.62305,-7.48837 18.62305,-9.98437 0,-1.536 -1.1515,-3.64844 -2.6875,-3.64844 -1.152,0 -5.37687,0.96094 -7.29687,0.96094 -3.072,0 -5.1836,-2.30453 -5.1836,-6.14453 l 0.38477,-38.591799 c 0.384,-10.752 -5.18441,-18.048828 -18.81641,-18.048828 z m 2.12695,40.542967 c 1.809,0.126 2.67383,1.16919 2.67383,3.61719 l -0.19336,15.36133 c 0,4.224 -10.36678,6.71875 -15.55078,6.71875 -6.912,0 -11.71289,-2.87996 -11.71289,-10.75196 0,-6.72 4.80025,-11.5192 22.65625,-14.7832 0.816,-0.144 1.52395,-0.20411 2.12695,-0.16211 z"
       style="font-style:normal;font-variant:normal;font-weight:normal;font-stretch:normal;font-size:50.79999924px;line-height:6.61458302px;font-family:'Hightower Text';-inkscape-font-specification:'Hightower Text';letter-spacing:0px;word-spacing:0px;fill:#00b7ff;fill-opacity:1;stroke:#000000;stroke-width:2.44698787;stroke-linecap:butt;stroke-linejoin:miter;stroke-miterlimit:4;stroke-dasharray:none;stroke-opacity:1" />
  </g>
  <path
     style="fill:#d4f2ff;fill-opacity:1;fill-rule:evenodd;stroke:#000000;stroke-width:0.72626621;stroke-linejoin:round;stroke-miterlimit:4;stroke-dasharray:none;stroke-opacity:1"
     d="m 4.5435773,92.316373 c -2.0158849,1.813994 -1.4179283,3.239741 -0.040492,4.549706 l 8.7072147,0.09761 -3.3390601,3.397561 c 0.5977911,1.75454 1.4649091,3.21905 4.5011441,2.34767 l 5.519174,-5.628234 13.958581,0.170771 -4.171262,3.960353 -4.327111,-0.73617 c -2.395702,1.18026 -2.235157,2.52114 -1.222168,3.91558 l 1.840992,0.31632 -1.391477,1.33157 c 0.871376,2.33248 2.31208,3.19352 4.361703,2.48081 l 1.112591,-1.06525 0.456125,0.84176 c 2.235683,0.144 3.795741,-0.54352 5.215073,-1.40422 l -1.685508,-3.19852 6.722515,-6.357886 8.891295,0.132261 -1.06625,0.965759 c 0.0081,1.920596 1.599214,2.655306 4.315573,2.547046 l 3.753559,-3.427782 7.187169,0.08746 -4.273768,5.469972 -7.187387,-0.0531 c -1.269855,1.29327 -2.018509,2.60658 -0.02564,4.02533 1.351474,0.01 2.702949,0.0199 4.054423,0.0299 l -4.273549,5.43562 c -4.622322,-0.0674 -9.244644,-0.13488 -13.866966,-0.20231 l -3.203406,-3.54573 c -2.157276,0.39433 -3.382898,1.29031 -4.621402,2.17935 l 1.097844,1.24904 c -1.289973,-0.0207 -2.579946,-0.0412 -3.869919,-0.0619 -0.487276,1.34166 -1.760345,2.68332 -0.07135,4.02499 l 4.284207,0.0649 -1.021206,1.30102 c 1.399458,2.33891 3.04827,2.52963 4.778979,2.0148 l 2.555114,-3.23482 c 3.60847,0.06 7.21694,0.11989 10.825411,0.17983 l -8.175533,10.40593 -9.679933,0.76685 c -0.454506,1.4781 -0.533988,2.87542 0.666027,3.99717 l 5.623376,-0.4619 -3.856067,4.93737 c 1.592995,2.48861 3.185991,1.88623 4.778987,2.01372 l 4.319471,-5.46962 2.419249,3.74175 c 2.449641,0.49062 3.86009,-0.41763 4.986997,-1.70754 l -4.107554,-6.26937 6.875016,-8.77206 2.781017,4.58281 -2.964062,2.3934 c 0.619531,1.35964 1.234353,2.72218 4.13042,2.68092 l 1.250967,-1.03095 0.957118,1.58401 c 2.033364,0.19826 4.024226,0.30499 5.07777,-1.60704 l -0.729262,-1.24632 c 0.39926,0.0477 0.79852,0.0954 1.19778,0.14303 1.613439,-1.32876 1.129373,-2.65751 0.808309,-3.98627 l -4.649803,-0.53674 -4.422114,-7.34623 4.413423,-5.63639 0.682507,1.17941 c 2.730751,1.28764 4.275838,0.50045 5.124306,-1.50578 l -2.324231,-4.07598 4.505263,-5.703346 4.251485,5.432056 -3.252139,4.1024 c 0.855928,1.83167 2.391732,2.59327 4.778979,2.01479 l 1.671882,-2.06803 4.296759,5.50002 -6.640747,8.10286 -5.806382,0.25874 c -0.476862,1.3316 -0.818504,2.6632 0.343148,3.99479 l 2.073558,-0.0856 -2.043023,2.46677 c 2.291439,2.1875 3.441542,1.91682 4.778758,2.04914 l 2.182899,-2.66755 1.050456,1.28198 c 2.867683,0.94751 3.835396,0.22964 4.758922,-2.01087 l -2.55957,-3.23933 5.015,-6.10213 8.318693,10.62872 -3.307458,5.61128 c 1.1305,1.61389 2.646382,2.50151 5.104429,1.61357 l 1.675319,-2.83875 2.788899,3.577 c 4.914416,0.39974 4.377446,-0.96168 4.804636,-2.0116 l -4.021724,-5.16198 6.955024,0.42067 c 1.53661,-0.84182 1.73103,-2.16542 0.43993,-4.02226 l -10.410006,-0.58038 c -0.09137,-0.008 -0.184292,-0.001 -0.2757,-0.002 l -6.947099,-8.83986 7.873531,0.66148 1.363263,3.0963 c 2.038211,0.49756 4.135611,1.18633 5.259911,-1.26862 l -0.59024,-1.31293 c 0.76777,0.0615 1.53554,0.12299 2.30331,0.18449 1.13187,-1.1634 1.4894,-2.46578 0.62401,-3.98764 -0.62925,-0.0494 -1.25851,-0.0987 -1.88775,-0.14812 l 0.78755,-0.73166 c -1.83336,-1.94891 -3.81611,-2.12815 -4.98634,-2.11141 l -2.293928,2.29163 -11.836098,-0.9924 -4.387523,-5.60159 c 0.82906,0.0845 1.658119,0.16898 2.48718,0.25347 1.696593,-0.85316 1.846697,-2.37247 0.715425,-3.98695 l -6.676158,-0.6859 -4.112483,-5.264645 8.201105,-0.07251 3.657414,4.488385 c 2.425829,0.28136 3.79121,0.13448 4.758921,-2.010883 l -2.056665,-2.565766 8.616867,-0.06943 6.900343,8.771889 -2.05737,3.13296 c 1.43515,2.01052 2.70385,2.53934 4.46337,2.45398 l 0.88453,-1.36858 1.96569,2.49639 c 1.7538,0.32514 3.38339,-0.15227 4.80442,-1.97725 l -2.14849,-2.73283 c 0.6758,-0.006 1.35162,-0.0122 2.02743,-0.0183 1.30565,-1.22287 1.45428,-2.54956 -0.0658,-4.02601 l -5.11488,0.0288 -5.347,-6.815274 16.44939,-0.14682 5.90737,5.645034 c 2.24945,0.20923 4.44839,0.35321 4.3929,-2.41613 l -3.4349,-3.312358 3.89342,-0.03833 3.89341,-0.03833 c 1.80984,-1.256577 1.71952,-2.785987 -0.005,-4.550044 z"
     id="path1074"
     inkscape:connector-curvature="0"
     sodipodi:nodetypes="cccccccccccccccccccccccccccccccccccccccccccccccccccccccccccccccccccccccccccccccccccccccccccccccccccccccccccccccccccccccccccccccccccccc" />
  <use
     x="0"
     y="0"
     xlink:href="#path1074"
     id="use4259"
     transform="matrix(-1,0,0,-1,138.5397,138.53967)"
     width="100%"
     height="100%"
     style="stroke-width:0.70000011;stroke-miterlimit:4;stroke-dasharray:none" />
</svg>
